# ProBuilder 5.1.1
# https://unity3d.com/unity/features/worldbuilding/probuilder
# 10/15/2023 3:56:33 PM

mtllib ./Arrow.mtl
o Arrow

g Cylinder
v -0.0025 -0.05 0.004330127
v 0 -0.05 0
v 0.0025 -0.05 0.004330127
v -0.006412208 0.03779273 0.007018834
v 0 0.05163078 0
v 0.007414579 0.03779273 0.005950868
v 0.005 -0.05 -4.371139E-10
v 0.002499999 -0.05 -0.004330127
v 0.009414613 0.03779273 0.001428306
v 0.001999974 0.03779273 -0.00941956
v -0.002499999 -0.05 -0.004330127
v -0.005 -0.05 0
v -0.001999974 0.03779273 -0.00941956
v -0.008412242 0.03779273 0.002496272
v -0.002499998 0.0358278 0.004330128
v 0.002499998 0.0358278 0.004330128
v 0.004999995 0.0358278 0
v 0.002499998 0.0358278 -0.004330128
v -0.002499998 0.0358278 -0.004330128
v -0.004999995 0.0358278 0
v -0.002499998 -0.03918568 0.004330128
v 0.002499998 -0.03918568 0.004330128
v 0.004999995 -0.03918568 0
v 0.002499998 -0.03918568 -0.004330128
v -0.002499998 -0.03918568 -0.004330128
v -0.004999995 -0.03918568 0
v 0.002499998 -0.04014364 0.004330128
v -0.002499998 -0.04014364 0.004330128
v 0.002499998 -0.04014364 -0.004330128
v 0.004999995 -0.04014364 0
v -0.002499998 -0.04014364 -0.004330128
v -0.004999995 -0.04014364 0
v 0 -0.05 -0.01757541
v 0 0.03779273 -0.00941956
v 0 0.0358278 -0.004330128
v 0 -0.03918568 -0.004330128
v 0 -0.04014364 -0.01757541
v -0.01359171 -0.05 0.007867783
v -0.007412225 0.03779273 0.004757553
v -0.003749996 0.0358278 0.002165064
v -0.003749996 -0.03918568 0.002165064
v -0.01359165 -0.04014364 0.007867813
v 0.01317394 -0.05 0.007360607
v 0.008414596 0.03779273 0.003689587
v 0.003749996 0.0358278 0.002165064
v 0.003749996 -0.03918568 0.002165064
v 0.01317388 -0.04014364 0.007360637

vt -0.0025 0.004330127
vt 0 0
vt 0.0025 0.004330127
vt 0.002 0.003464102
vt -0.002 0.003464102
vt 0.005 -4.371139E-10
vt 0.002499999 -0.004330127
vt -0.004 -3.496911E-10
vt -0.002 -0.003464102
vt -0.002499999 -0.004330127
vt -0.005 0
vt 0.002 -0.003464102
vt 0.004 0
vt -0.002499998 0.02463576
vt 0.002499998 0.02463576
vt -0.006412208 0.02796594
vt 0.007414579 0.02710369
vt 0.02158776 -0.007754018
vt 0.01939476 -0.01224743
vt 0.02640367 -0.006271852
vt 0.01989955 -0.01767648
vt -0.02442726 -0.01303883
vt -0.02637388 -0.008433324
vt -0.02527084 -0.01845193
vt -0.03026373 -0.005878176
vt -0.0025 -0.0004999992
vt -0.0025 0.049
vt 0.0025 0.049
vt 0.0025 -0.0004999992
vt -0.0025 -0.0004999992
vt -0.0025 0.049
vt 0.0025 0.049
vt 0.0025 -0.0004999992
vt 0.0025 -0.02525
vt -0.0025 -0.02525
vt 0.0025 -0.05
vt -0.0025 -0.05
vt 0.0025 -0.02525
vt -0.0025 -0.02525
vt 0.0025 -0.05
vt -0.0025 -0.05
vt 0 -0.01757541
vt 0 -0.003464102
vt -0.002499998 -0.01694358
vt 0 -0.01694358
vt 0 -0.02239915
vt -0.001999974 -0.02239915
vt 0.002499998 -0.01694358
vt 0.001999974 -0.02239915
vt 0 0.049
vt 0 -0.02525
vt 0 -0.05
vt -0.01359171 0.007867783
vt 0.003 0.001732051
vt -0.01553924 0.009486564
vt -0.0167011 0.00727551
vt -0.02082987 0.009910735
vt -0.01990037 0.0122019
vt -0.01786295 0.005064457
vt -0.02175937 0.007619566
vt 0.01317394 0.007360607
vt -0.003 0.001732051
vt 0.01736371 0.004910194
vt 0.01619472 0.007117677
vt 0.02125288 0.008652574
vt 0.02218809 0.006363731
vt 0.01502573 0.009325159
vt 0.02031766 0.01094142

vn 0 -1 0
vn 0.06969488 0.4253775 0.9023284
vn 0.7374031 0.4496634 -0.5040233
vn -0.8030812 0.4102397 -0.4321621
vn 0 -0.8073764 0.5900368
vn 0.02702359 -0.7598633 0.6448885
vn 0.05404717 -0.7123501 0.6997401
vn 0.4626763 -0.845325 -0.267126
vn 0.4890159 -0.8132799 -0.3096886
vn 0.5153555 -0.7812348 -0.3522513
vn -0.5899457 -0.7320877 -0.3406049
vn -0.6178397 -0.7059996 -0.3440468
vn -0.6457337 -0.6799115 -0.3474887
vn -0.5000002 0 0.8660253
vn 0.5000002 0 0.8660253
vn 1 0 0
vn 0.5000002 0 -0.8660253
vn -0.6231823 0.2289603 -0.7478108
vn -0.5000002 0 -0.8660253
vn -1 0 0
vn -0.1461319 0.2101759 0.9666808
vn 0.1628605 0.2109631 0.9638314
vn -0.1378776 -1.276589E-06 0.9904493
vn 0.1537618 -1.315991E-06 0.9881079
vn 0.9210974 0.2116637 -0.3267691
vn 0.7514438 0.2110968 -0.6251162
vn 0.9376204 2.137644E-07 -0.3476608
vn 0.7771621 3.950769E-07 -0.6293005
vn -0.7797841 3.684071E-07 -0.6260485
vn -0.9376204 2.081412E-07 -0.3476608
vn -0.9558012 5.823266E-08 -0.2940136
vn -0.7542936 0.210891 -0.6217444
vn 0 0.5627056 -0.8266574
vn 0 -0.9328871 -0.3601689
vn 0 0 -1
vn 0.06944246 0.5692418 -0.8192323
vn -0.08696564 0.9260749 -0.3671815
vn -0.7741761 0.532387 0.3423675
vn -0.3518156 -0.9184905 0.1791387
vn -0.3486456 -0.9153843 0.2012904
vn -0.3549855 -0.9215966 0.1569869
vn -0.3699138 -0.9094575 0.1883657
vn -0.3667538 -0.9059005 0.2117452
vn -0.3730738 -0.9130145 0.1649862
vn -0.7903637 0.4087709 0.456324
vn -0.8660257 0 0.4999995
vn -0.259883 0.9538489 0.150443
vn -0.8652755 -3.264858E-06 0.5012966
vn 0.7619106 0.5531379 0.3369433
vn 0.3431202 -0.9227961 0.173897
vn 0.3279777 -0.925513 0.1893578
vn 0.3582627 -0.9200792 0.1584362
vn 0.3272888 -0.9300182 0.1658935
vn 0.3131418 -0.9323392 0.1807923
vn 0.3414359 -0.9276972 0.1509948
vn 0.7907454 0.4079122 0.4564312
vn 0.8660257 0 0.4999995
vn 0.2752327 0.9490166 0.1536698
vn 0.8752406 -2.738068E-06 0.4836878

usemtl ProBuilderDefault
f 1/1/1 2/2/1 3/3/1
f 7/6/1 2/2/1 8/7/1
f 11/10/1 2/2/1 12/11/1
f 6/5/2 5/2/2 4/4/2
f 10/9/3 5/2/3 9/8/3
f 14/13/4 5/2/4 13/12/4
f 4/16/6 15/14/5 16/15/6
f 16/15/6 6/17/7 4/16/6
f 9/20/9 17/18/8 18/19/9
f 18/19/9 10/21/10 9/20/9
f 13/24/12 19/22/11 20/23/12
f 20/23/12 14/25/13 13/24/12
f 21/26/14 22/29/15 16/28/15
f 16/28/15 15/27/14 21/26/14
f 23/30/16 24/33/17 18/32/17
f 18/32/17 17/31/16 23/30/16
f 19/27/19 25/26/18 26/29/20
f 26/29/20 20/28/20 19/27/19
f 28/35/22 27/34/21 22/29/15
f 22/29/15 21/26/14 28/35/22
f 3/36/23 27/34/21 28/35/22
f 28/35/22 1/37/24 3/36/23
f 30/39/26 29/38/25 24/33/17
f 24/33/17 23/30/16 30/39/26
f 7/41/28 8/40/27 29/38/25
f 29/38/25 30/39/26 7/41/28
f 31/35/31 11/37/30 12/36/29
f 12/36/29 32/34/32 31/35/31
f 25/26/18 31/35/31 32/34/32
f 32/34/32 26/29/20 25/26/18
f 11/10/1 33/42/1 8/7/1
f 8/7/1 2/2/1 11/10/1
f 34/43/33 13/12/33 5/2/33
f 5/2/33 10/9/33 34/43/33
f 34/46/34 35/45/34 19/44/34
f 19/44/34 13/47/34 34/46/34
f 34/46/34 10/49/34 18/48/34
f 18/48/34 35/45/34 34/46/34
f 36/2/36 35/50/35 18/27/17
f 18/27/17 24/26/17 36/2/36
f 25/33/18 19/32/19 35/50/35
f 35/50/35 36/2/36 25/33/18
f 25/33/18 36/2/36 37/51/37
f 37/51/37 31/38/31 25/33/18
f 36/2/36 24/26/17 29/35/25
f 29/35/25 37/51/37 36/2/36
f 33/52/35 11/40/30 31/38/31
f 31/38/31 37/51/37 33/52/35
f 33/52/35 37/51/37 29/35/25
f 29/35/25 8/37/27 33/52/35
f 12/11/1 2/2/1 1/1/1
f 1/1/1 38/53/1 12/11/1
f 14/13/38 39/54/38 4/4/38
f 4/4/38 5/2/38 14/13/38
f 40/56/40 15/55/39 4/58/41
f 4/58/41 39/57/39 40/56/40
f 20/59/43 40/56/42 39/57/44
f 39/57/44 14/60/42 20/59/43
f 40/50/46 41/2/45 21/33/14
f 21/33/14 15/32/14 40/50/46
f 20/31/20 26/30/20 41/2/45
f 41/2/45 40/50/46 20/31/20
f 41/2/45 42/51/47 28/38/22
f 28/38/22 21/33/14 41/2/45
f 26/30/20 32/39/32 42/51/47
f 42/51/47 41/2/45 26/30/20
f 38/52/48 1/40/24 28/38/22
f 28/38/22 42/51/47 38/52/48
f 12/41/29 38/52/48 42/51/47
f 42/51/47 32/39/32 12/41/29
f 2/2/1 7/6/1 43/61/1
f 43/61/1 3/3/1 2/2/1
f 6/5/49 44/62/49 9/8/49
f 9/8/49 5/2/49 6/5/49
f 17/63/50 9/66/52 44/65/50
f 44/65/50 45/64/51 17/63/50
f 45/64/53 44/65/55 6/68/53
f 6/68/53 16/67/54 45/64/53
f 23/33/16 17/32/16 45/50/57
f 45/50/57 46/2/56 23/33/16
f 46/2/56 45/50/57 16/31/15
f 16/31/15 22/30/15 46/2/56
f 30/38/26 23/33/16 46/2/56
f 46/2/56 47/51/58 30/38/26
f 46/2/56 22/30/15 27/39/21
f 27/39/21 47/51/58 46/2/56
f 43/52/59 7/40/28 30/38/26
f 30/38/26 47/51/58 43/52/59
f 3/41/23 43/52/59 47/51/58
f 47/51/58 27/39/21 3/41/23

